<svg viewBox="0 0 48 48" xmlns="http://www.w3.org/2000/svg"><title>map of Japan</title><g transform="matrix(.80098 0 0 .80073 -1.5681 -1.651)" fill="#628441"><path d="m10 51.6c-.6-.1-1.6.4-2.3-.4s-1.7-.1-1.9.6-4.3.9-3.8 1.3c.5.5 1.8 2.9 2.3 2.4s1.1-2.1 1.6-1.3.7 2.3-1.1 3.7c-1.8 1.5.9.6.5 2.3-.3 1.9 1.6 1.7 1.9 1.8s2-.9 2.3-1.6 2.1-5.4 1.9-5.8-.8-1.4-1.6-1.2c-.7.2 2.4-1.4.2-1.8m-1-2.7c-.7.1-2 .7-1.1 1.4s2.8-.9 3.6.0 1.5-1.6 1.8-1 2.4.1 3.9-.4 3.1-1.6 4.6-1.2 2.7.8 1.9 1.4-1.4 2-.8 2.2c.7.2 1.7 1.7 2.6 1.4s2-3.3 3.4-3.2.4-1.4-.5-1.5 1.1-2.5 1.7-1.4c.5 1.1 3.5 2 4.1 1.6.7-.4 1.5-1.9 2.5-1.9s-1.5 2.8.0 2c1.5-.7 1.4-3.3 2.6-2.5s1.5-2.4 1.7-1.1-.9 2.4.0 2.1 3-2.5 2.6-3.9c-.5-1.3-.8-3.4.7-4.2 1.4-.7-.5-5.8.9-5.8s1.4.6 1.4-.8c.1-1.4.6-2.1 1.7-3.3 1.1-1.1-1.8-4.8-2.2-5.4s.8-2.6-.6-3.3c0 0-1.4-1-1.7.0s1.7 1.2 1.5 2c-.3.8-2.3.9-2.4-.5-.1-1.5-.8-.1-.8.9s-2.4.1-1.7 1.4-1.3 2.7-.2 3-.4 5.4-1.1 5.9c-.8.5-.2 1.5-1.6 1.9s-2.8 3.3-4.6 3.8-2.3 1.3-2.5.5c-.2-.9-1.6-.7-.4-1.3s2-1.8.8-1.5c-1.3.3-2.5 1.5-2 2.1.5.7.2 1.9-.8 2.6s-2.6 1.6-1.9 2.3c.8.7-.2 2.1-1.1 1.6s-1.8-1.9-2.7-1.3c-.9.7-3.3 1.2-4.6 1s-3.2-.8-3.4.1-2 2.9-2.9 3.1c-.8.2-1.4 1-2.4 1.2"/><path d="m20.4 49.3c-.6.1-2-.5-2.5.3-.5.9-1.2.4-1.6.9s-1.3-1-1.9.0-2.1 2.1-1.3 2.7-.3 1 .4 1.7 2 .9 2.3.0c.2-.9 1.1-3 2.2-2.5s1.6.8 2 .3 1.1-1.3 1.7-1.5c.4-.1.1-2.2-1.3-1.9m23.7-31.8c.7.7 1 1.3.5 1.4s-1.4-.8-1.8.0-1.2 2.1-2 1.2 1.5-2.4.5-2.6-1.8-1.1-1.3-2.1 1.7-1.5 2.3-1.9-.2-.8.0-1.4c.3-.6.3-.6 1.5.0 1.1.6 2.3 1 2.3-.4s-1.3-2.1.0-2.5.6-1.1 1.1-2.1.0-2.5-.5-3.4.9-2.7 2.3-.8 4.8 5.2 6.1 5.4c1.4.1 1.7.5 2.6.9.9.3 3.5-2.5 2.9-1.7-.5.9-1.7 2.3-1.1 2.8s.9 1.3.5 1.6 3-.7 1.5.3c-1.5.9-2.2.8-2.6 1.4s-2.3.4-3.2-.1c-.8-.5-2.3 1.9-2.7 2.7-.5.7.2 2.4-.5 1.8.0.0-1.7-.8-2.8-1.3s-2.5-1.8-3.5-1.3c-1.1.5-1.9 1.5-2.1.9-.1-.3.0-.7-.7-.9-.6-.2-1.5.3-1.6.9-.2.6.2.9.9 1 .8-.2 1.2.0 1.4.2"/></g><path d="M36 27H12c-1.65.0-2.985 1.35-2.985 3L9 45c0 1.65 1.35 3 3 3h24c1.65.0 3-1.35 3-3V30c0-1.65-1.35-3-3-3zm-13.5 4.5h3v3h-3zm0 4.5h3v3h-3zM18 31.5h3v3h-3zm0 4.5h3v3h-3zm-1.5 3h-3v-3h3zm0-4.5h-3v-3h3zM30 45H18v-3h12zm0-6h-3v-3h3zm0-4.5h-3v-3h3zm4.5 4.5h-3v-3h3zm0-4.5h-3v-3h3z" stroke-width="1.5"/></svg>