<svg xmlns="http://www.w3.org/2000/svg" viewBox="0 0 1009 982"><title>Japanese Prefectures</title><desc>Created by marmooo (https://github.com/marmooo/prefectures-map-ja)</desc><g stroke-linejoin="round" class="svg-map"><g fill="#eee" stroke="#800" class="prefectures"><g class="okinawa kyusyu-okinawa prefecture" data-code="47" transform="translate(52 193)"><title>沖縄 / Okinawa</title><path d="m4 109 2 1-2 1-4-1zm44 12 7 2-4 6-12-5 3-2 2 3 2-7zm84-8-2-3h2l-2-2 3-3-1-5 3 8 7 6zm93-90-1 5-5-5 4-2zM73 117l4-5 2 1-6 7-1 6-6 1-2-2 3-3-4-3 8 1z"/><path d="m287 20 4-3-5-2-1-7 7 2v4l7-1-1-2 9-11 2 5v4l-4 6h-5l-1 4h-6l1 2-6 4h-7l5 9-5-3-5 8 4 2-10 5v-8l7-6-2-8 5 1z" class="main"/><path d="m127 106-1-3 2 1zM279 8V6l4 2zm14 3 1 2-2-1z"/></g><g class="kagoshima kyusyu kyusyu-okinawa prefecture" data-code="46"><title>鹿児島 / Kagoshima</title><path d="m119 966 3 2-3 1zm10 11-1-6 7-4 9 6-1 5-6 4-6-1zm31-7v5l-5 1-1-7 4-3 1-10 7-10 1 9z"/><path d="m134 861 5 4 9-4 5 6-1 2 5 7 5 5-1 5 5 2 3 9 7 1v7l-2 3-3-1-5 6 5 3-2 4 3-1-7 3-3 5-16 8v-5l5-3 4-12-6-9 1-5-6-3 5-2 1 4 3 1 4-6-7-6-4 2-6 13 2 11 5 3-2 5-6 1-3-6h-13l1-4-3-1 2-2-5-4h9l4-10-3-9-5-4 3-7-2-12 3-2 4 2z" class="main"/><path d="m127 854 3-1-1 2zm-4 11-3-6 5-2 1 4zm-23 20 2-3 1 2-5 8-2-1zm8-4-3-3h5zM380 166l-4 1-1-4 10-2zm17-23v-8h5l-1 4 4 4-1 3-5 3-3-4zm62-28-3 1-1-2 6-4zm-19-8-13 8 4 3-5 3-3-1 2 4-6-5 2-3-9-2h8l1-2-4-1 14-6 2 2 2-4 5-1-2 4 2-2 1 2 2-7 2 6z"/><path d="m420 125-2-2-2 2-2-7 5 1-1 3 6 2-3 2 1-2zm31-96-3 4v-3zm6-11 2-1 2 4z"/></g><g class="miyazaki kyusyu kyusyu-okinawa prefecture" data-code="45" transform="translate(152 824)"><title>宮崎 / Miyazaki</title><path d="m36 0 2 1 5-1 5 5h8l3-4 4 1v5h2L54 17l-1 4 3 1-4 1-1 2 2 1-6 8-6 17-2 23-5 5-2 12-5-2-5-5 2-3v-7l-7-1-3-9-5-2 1-5-5-5-5-7 1-2 21-2-3-6 4-5-5-7v-7l5-2 9-14z" class="main"/></g><g class="oita kyusyu kyusyu-okinawa prefecture" data-code="44" transform="translate(163 771)"><title>大分 / Oita</title><path d="m0 34 3-5-3-3 2-2-1-5 4-6 7-4 7 1 1-7 13 4 5-7 9 4 2 6-3 8-3-1v3l-8 2 1 4 4 2 16-1-6 9h6l-3 2 3 2 5-2 1 3h-5l-2 4 10 4h-6l2 2-4 3 3 1-6 1v4h-2v-5l-4-1-3 4h-8l-5-5-5 1-2-1-4-4 1-6-7-13H9l1 6-2 3z" class="main"/></g><g class="kumamoto kyusyu kyusyu-okinawa prefecture" data-code="43" transform="translate(115 800)"><title>熊本 / kumamoto</title><path d="m8 37 5 1v10l-8 9-4 1v-6l4-1-5-1 4-10-1-3z"/><path d="M20 47h-6l-2-4 7-4h7l-3 8zm4-13h2v4h-3z"/><path d="m38 67-5-6-9 4-5-4 13-15-2-6 2 1-1-2 6-5H26l8-6 1-5-8-8-1-5h5l-1-3 5-4 4 1 1-4 8 5 8 5 2-3-1-6h6l7 13-1 6 4 4h-4l-9 14-5 2v7l5 7-4 5 3 6z" class="main"/></g><g class="nagasaki kyusyu kyusyu-okinawa prefecture" data-code="42" transform="translate(44 700)"><title>長崎 / Nagasaki</title><path d="m53 1 2-1 2 2-3 3 1 4-6 6-1 4 3-1-2 4 2-1-3 4v-5l-2 2v-3l-1 3-3-2h2l1-5h2l-2-1 4-4-3-2 2-5h4zM46 29l-3 6-6 1 3-14 1 2 4 1-1-3 1 4 3-1zM67 59l1 2-4 2-4-4h2l-1-3 3-3 3 2-1 2 2 1zM28 110l-3 5 1-5-3-3 3-1v-4h2l2-8-2 11 5 1-3 2-2-2zm-4 2-3-1v-2l2 2-1-3zm-5 1 1-3-1 6-3-5zM6 118l3-1 1 2 2-4 4 10-7-1v5l-9-3 1-2 2 2 1-1H2l3-3-1-6zM65 80l-3 1 2-3zm2 2 3 2-3 2zM29 88l2-3 2 2zM54 76l-3 1 4-3z"/><path d="m66 86-2 3 2 7 7 2-1 4 6 7 8 3-7 5 13 1 2 5-2 7-10 4-2-6 5-4-1-2-5-1-8 2-3 6-8 5 4-5-1-3 2 1 2-4-3 2-1-7-4-1-3-6 3-11 4 4-1 4 1-2 3 2-2 7 11 3-4-6 1-5-3-4-3 2-1-6h-3v-2l-4 3 2-2-3-2v-3 2l-4-2 4-6-3-1 1-3 5-1v3l5-1z" class="main"/><path d="m49 88-1 4-6 2 5-3-2-2 3-5h4l2-3 1 3zM15 115v-2l3 3-3 2zm49-14-1 3-1-3 2-3z"/></g><g class="saga kyusyu kyusyu-okinawa prefecture" data-code="41" transform="translate(108 773)"><title>佐賀 / Saga</title><path d="M15 6h13l6 6 7-2-1 6-8 5-2 7-5-5-6 6 3 10-8-3-6-7 1-4-7-2-2-7 2-3 3 4-1-4 2-4-4-3 1-2 3 2V0l1 2h4l1 5z" class="main"/></g><g class="fukuoka kyusyu kyusyu-okinawa prefecture" data-code="40" transform="translate(123 752)"><title>福岡 / Fukuoka</title><path d="m40 53-8-5-1 4-4-1-5 4 1 3h-5v-6l-3-3 2-7 8-5 1-6-7 2-6-6H0l7-4-4-3 7-5 3 6 7-1 1-5-4 2-3-3 5 1 4-3 2-7 10-2 1-3 6 1-4 4h3l2-3 3 2 7-4-4 8 3 2-2 1 5 11h5l-1 7-7-1-7 4-4 6 1 5-2 2 3 3z" class="main"/></g><g class="kochi shikoku prefecture" data-code="39" transform="translate(251 765)"><title>高知 / Kochi</title><path d="m61 0 13 6 6-2 1 8 7 1-2 4 2 4 6 1-7 19-12-16-10-4-10 2v-2l1 3-12 4h6l-6 1-2 3-1-3-3 4 1 5-2 6h-3l-4 8-5 1v8l-3 3 3 6-4-4-7 2-5-3-4 2 1-6 4-1-1-3H6l2-3-3-13 4 3 6-8 5-3-4-9 11-1 3-10 7-9z" class="main"/><path d="m1 69-1 1v-3z"/></g><g class="ehime sikoku prefecture" data-code="38" transform="translate(225 737)"><title>愛媛 / Ehime</title><path d="m34 21-3-1 4-3zM55 6h-4l4-6 2 3zm5-1h1l-1 2-3-1zm-2 5-4 2 1-5 5 1z"/><path d="m32 85-7-2v3h-2l1-5 3 1-6-6h3l-2-4h3l-3-1 1-2-3-2 4 3 4-4v-3h-4l3-3h-8l2-3-2-1 3-5-6-1-8 6-8 1 35-20 6-19 9-3-2-4 3-1 8 14 11-4 10 2 4-4 5 2-2 8-24 4-7 9-3 10-11 1 4 9-5 3-6 8-4-3 3 13z" class="main"/></g><g class="kagawa shikoku prefecture" data-code="37" transform="translate(308 724)"><title>香川 / Kagawa</title><path d="m6 33-5-2 3-10-4-4 6 3 13-10 7 3 4-4 1 5 3-3 3 3-1 3 9 5-1 3-13-2-9 7-7-3z" class="main"/><path d="m27 5-2-1h4zM40 0h2l-2 8-2-1V5l-3 4V5l-4-2z"/></g><g class="tokushima shikoku prefecture" data-code="36" transform="translate(312 744)"><title>徳島 / Tokushima</title><path d="m50 2 2-2-1 4z"/><path d="m41 2 8-2v3l3 1-4 9 7 7-5 4 7 2-19 10-5 7-6-1-2-4 2-4-7-1-1-8-6 2-13-6 2-8 9-6 7 3 9-7 13 2z" class="main"/></g><g class="yamaguchi chugoku prefecture" data-code="35" transform="translate(168 710)"><title>山口 / Yamaguchi</title><path d="m45 0 2 6-4 5 2 4h5l-2 5 2 4 6-2 2 2 3-4-1-4 4-2v7l2 2 1 6 5 2v5h-3l1 8-5 2v8l-4-6h-4l-5-6-5 2 3-3-4-3-11 4-3-3-2 3-1-2-2 2v-4l-2 5-4 2-2-2-3 2-1-5-6-4-6 7v-7l-3-4 4-5-3-6 3-4h6l-5-2 2-3 9 2 1 3h7l6-2-1-3L41 1l2 1z" class="main"/><path d="m64 54-5 2 3-4zm11-4 8-2-5 2-1 3-4-3-4 3-2-5 3-2zM18 15v-2l4 1zM51 46h-3l3-3z"/></g><g class="hiroshima chugoku prefecture" data-code="34" transform="translate(230 687)"><title>広島 / Hiroshima</title><path d="m73 40-1 2-3-2 3 3-2-1-2 5-5-2v-3l-9 2-3 4-12 1-2 4-7 2-2-2-3 3 1-3-3-6 2-2-8-1-8 7 1 3-5-2-1-6-2-2v-7l-2-2 5-5 2-6-1-2 6-5 8 2 2-3 5 2 8-2-3-5 6-3 7-8 13 2 7 2 3 3-2 7 4 5-1 5z" class="main"/><path d="m45 53-2 3-2-3 5-2zM21 54l-1-4 3 1-1 8h-3l2-3-4-5zm-6-6 1 2-4 2zm20 9-2-1h3z"/><path d="M24 58h2l-1 3h3l-2 2-6-1 3-6h3zm35-9v3l-3-3z"/><path d="m57 50-4 2 1-2zm3-6 2 1-3 2z"/></g><g class="okayama chugoku prefecture" data-code="33" transform="translate(295 673)"><title>岡山 / Okayama</title><path d="m58 8 1 6-8 8 1 7-2 3 4 6-1 3-7-2 3 3-6 7-9-1 5 1-3 4-2-1-1 5-6-2-2 3-2-6v3l-4-4-4 4-5-3 2 4-4-2-4-16 1-5-4-5 2-7-3-3 1-3 7-1-1-4h7l-1-3 2-1 3-6 7 2 4 5 10-6-1 2 7 3 1 6z" class="main"/></g><g class="shimane chugoku prefecture" data-code="32" transform="translate(211 610)"><title>島根 / Shimane</title><path d="m74 14 4-1-3 4-3-2 1 4-2-3zm5 2-2 3v-4l2-1 2 3zM83 5l5-5 5 5-1 4h-3l2 2-5 1z"/><path d="m2 1e2 8-2 15-14 10-6 6-8 11-5 3-6-2-4 17-4 6-5 3 3 8-1-3 2-2 1 6 8-1 9-8 2 2 3-4 6-13-2-7 8-6 3 3 5-8 2-5-2-2 3-8-2-6 5 1 2-2 6-5 5 2 2-4 2 1 4-3 4-2-2-6 2-2-4 2-5H2l-2-4 4-5z" class="main"/></g><g class="tottori chugoku prefecture" data-code="31" transform="translate(288 658)"><title>鳥取 / Tottori</title><path d="m7 33-7-2 4-6-2-3 8-2 1-9-6-8 2-1 2 4 6 2 8-4 11 2 21-1 9-5 7 17v4l-6 2-12 4-1-6-7-3 1-2-10 6-4-5-7-2-3 6-2 1 1 3h-7l1 4-7 1z" class="main"/></g><g class="wakayama kinki prefecture" data-code="30" transform="translate(385 737)"><title>和歌山 / Wakayama</title><path d="m41 32 3 6 5 3-4 5 1 4-8 5-1 4h-2l1-3-17-5-5-7 3-3-8-4-5-7H0l3-5-3-1 6-3-5-3 4-2-1-2h4L0 6l2-3 3 3 26-6 4 9-4 1-6 7 5 7-2 6z" class="main"/><path d="M49 23v3l-5 3v-3z"/></g><g class="nara kinki prefecture" data-code="29" transform="translate(410 712)"><title>奈良 / Nara</title><path d="m24 48-5 3v3h-2v3h-1L3 55l2-6-5-7 6-7 4-1-4-9 2-5-2-9 5-11 6 5 4-3 4 3 2-2 2 4-3 1 2 1-1 4 9 5-8 6 3 5-2 1 2 3-2 4 1 7-1 3z" class="main"/></g><g class="hyogo kinki prefecture" data-code="28" transform="translate(345 655)"><title>兵庫 / Hyogo</title><path d="m31 90-8 3v-5l-3 1v-3l18-19 1 2-7 10 3 9z"/><path d="m3 59 1-3-4-6 2-3-1-7 8-8-1-6 6-2v-4L7 3l9-3 17 1-1 4 4 5 5-1 1 2v6h-6l-1 6 7 5 5-2 2 7 10 2-1 5-3 1 1 4 6 3-2 1 2 11-3 2-6-2-13 6-15-10-14 1v-4l-3 5-3-2z" class="main"/></g><g class="osaka kinki prefecture" data-code="27" transform="translate(387 695)"><title>大阪 / Osaka</title><path d="m16 0 8 8 4-3-1 3 4 1 3 8-5 11 2 9-2 5-26 6-3-3 7-1 7-7 3-9 2 2-2-8 3-2-2-11 2-1-6-3-1-4z" class="main"/></g><g class="kyoto kinki prefecture" data-code="26" transform="translate(377 649)"><title>京都 / Kyoto</title><path d="m44 63-3-8-4-1 1-3-4 3-8-8 1-5-10-2-2-7-5 2-7-5 1-6h6v-6l-1-2-5 1-4-5 1-4 2 3-1-2 17-8 4 7-8 7 3 1 2-4v4l4 2-1 4 2-3 2 1-2-5 6-3 1 3-1 6 3 5 12 2 5 5-3 14 3 10h4l4 6 1 4-2 2-4-3-4 3z" class="main"/></g><g class="shiga kinki prefecture" data-code="25" transform="translate(423 655)"><title>滋賀 / Shiga</title><path d="m20 0 7 3 1 6h3l3 7 1 3-4 10 2 1 1 10-4 10-6 3-7-3-1 5-3 1-4-6H5L2 40l3-14-5-5 3-4 3 1 3-7 3 2 6-3V7l3 1zm0 13v3l-2-3-4 3 2 8-8 8v4l-3 6 2 3 2-9 6-1 1-4 9-6 1-4z" class="main"/></g><g class="mie kinki prefecture" data-code="24" transform="translate(426 683)"><title>三重 / Mie</title><path d="m8 95-5-3-3-6h1v-3h2l5-3v-3l5-1 1-3-1-7 2-4-2-3 2-1-3-5 8-6-9-5 1-4-2-1 3-1-2-4-1-4 3-1 1-5 7 3 6-3 4-10-1-10 6-2 7 7 5 8-6 1 1 4-7 12-1 8 16 7 2 5 3-1-1 4h-5l5 1v5l-4 1 2-2-3-2-1 2-6 1 3-4h-4l-3 5v-2l-3 3-2-2v3l-2-2-7 4-3 2 1 5-2-1 1-2-4 3 4 4h-2l2 3-3-2 1 3-7 4z" class="main"/></g><g class="aichi chubu prefecture" data-code="23" transform="translate(469 673)"><title>愛知 / Aichi</title><path d="m42 46-24 6 2-5 3 2 8-6 2 3 2-3-1-3-6-3-2 4-8-1-4-3 2-8-4 11 4 5h-3l-4-4 1-5-2-3v-5l4-7-7 4-5-8 1-6 4-8 10-3 6 8 5 2 7-2 6 4 7-4 1 6 5-3 8 2-10 20-8 5z" class="main"/></g><g class="shizuoka chubu prefecture" data-code="22" transform="translate(511 659)"><title>静岡 / Shizuoka</title><path d="M73 14h4v13l6 4-2 5 4 6v4l-7 9-1 6-7 4-6-6 3-14-2-4 1-3 6-1-10-6-7 2-4 5 2 3-9 4-2 9-6 7 2 4-13-4-25-1v-8l8-5 10-20 15-10V5l4-5 3 8-1 11 5 1 4 9 5-2-1-7 4-8 5 5z" class="main"/></g><g class="gifu chubu prefecture" data-code="21" transform="translate(450 608)"><title>岐阜 / Gifu</title><path d="m66 4 3 6-5 10 3 4-1 4-6 7h-5l-2 5 6 3 5 7-2 3 6 6-2 4 2 3h-3l2 4-2 3-7 4-6-4-7 2-5-2-6-8-10 3-4 8-1 6-7-7-6 2-2-1 4-10-1-3-3-7H1l-1-6 5-9 6 3 1-2 13-1 3-4-6-8 2-6 5-10-3-3 4-5 4 2 1 4 9-11 3 2 5-2v2l4-2z" class="main"/></g><g class="nagano chubu prefecture" data-code="20" transform="translate(503 572)"><title>長野 / Nagano</title><path d="m68 18-9 3 1 2-5 4-1 7 3 5h9l1 6-3 2 2 6-3 1 3 3v6l4 2 1 5-3 2-4-3-6 2-5-5-10 11 3 3-3 2 2 5-4 5v12l-15 10-8-2-5 3-1-6 2-3-2-4h3l-2-3 2-4-6-6 2-3-5-7-6-3 2-5h5l6-7 1-4-3-4 5-10-3-6 6-8-1-3 3-1 1-11 5-7V7l7 1v5l2 1 8-4 4 2V7l5-5 7-2 3 2v5l5 4z" class="main"/></g><g class="yamanashi chubu prefecture" data-code="19" transform="translate(546 638)"><title>山梨 / Yamanashi</title><path d="m2 21-2-5 3-2-3-3L10 0l5 5 6-2 4 3 3-2 11 3 4 8 5 3-1 9-9 8-12 3-5-5-4 8 1 7-5 2-4-9-5-1 1-11z" class="main"/></g><g class="fukui chubu prefecture" data-code="18" transform="translate(408 618)"><title>福井 / Fukui</title><path d="m40 0 6 8 10 1 5 5 5-1-2 6 6 8-3 4-13 1-1 2-6-3-5 9-7-3 1 8-3-1v3l-6 3-3-2-3 7-3-1-3 4-12-2-3-5 1-6 2 4 7-3-4 3 7 1 2-3-2 1v-3l6 2-2-2 3-2-2-3 8 1-1-6 3-2 1 5 2 1 1-7-7-13 9-13V2z" class="main"/></g><g class="ishikawa chubu prefecture" data-code="17" transform="translate(448 541)"><title>石川 / Ishikawa</title><path d="m37 26-3-3h7z"/><path d="m28 77 3 3-5 10-5 1-5-5-10-1-6-8 15-15 11-18 1-11-2-4v-5l-3-1 5-13L52 0l4 1 1 4-6 1-1 9-4-1-7 8-2-4-3 1-2 9 6 2 3-4v10l-8 2-2 10-3 2 2 4-2 3 1 4-2 8z" class="main"/></g><g class="toyama chubu prefecture" data-code="16" transform="translate(475 575)"><title>富山 / Toyama</title><path d="m41 37-10-4-4 2v-2l-5 2-3-2-9 11-1-4-4-2-4 5-1-8 2-8-1-4 2-3-2-4 3-2L6 4l8-2-3 6 12 7 8-4 2-8 10-3 4 3 3 11-1 11-3 1 1 3z" class="main"/></g><g class="niigata chubu prefecture" data-code="15" transform="translate(518 476)"><title>新潟 / Niigata</title><path d="m7 113-3-11-4-3 14-5 9-7h7l15-12 10-15 5-14 19-12 1 2-1-1 6-7 9-28 8 3v7l9 6-2 4-8 3v8l-3 8 3 5 3 2-9 10 2 9h-8l-1 3-9 1-1 3 2 4-4 6 5 5-1 14-7-7-2 4-4 1 1 5-3 1v3l-12 6v-7l-5-4v-5l-3-2-7 2-5 5v5l-4-2-8 4-2-1v-5l-7-1v3z" class="main"/><path d="m36 46-8 1 7-9-2-3-3 2v-6l4-8 9-9-4 16 7 1-3 9z"/></g><g class="kanagawa kanto prefecture" data-code="14" transform="translate(584 656)"><title>神奈川 / Kanagawa</title><path d="m10 0 14 6 4 5V6h2l-3-2 3-2 14 7-4 4-4-1 3 4h-3v7l6 3-4 4 1 3h-4l1-5-3-4-7-2-11 3-4 3 1 6h-2l-6-4V17H0l9-8z" class="main"/></g><g class="tokyo kanto prefecture" data-code="13" transform="translate(585 642)"><title>東京 / Tokyo</title><path d="M49 173v5l-5-7zM34 113l-2 2-3-1 2-3zm-23-9 2 2-2 1zm7-6-2-2 2-4zm4-23v-6l4 1v6z"/><path d="m48 7 1 5-2 4-6-1 2 4-4 1h4v3l-14-7-3 2 3 2h-2v5l-4-5-14-6-5-3-4-8 3-3 15 4 5 4 7-3v4l6-3 4 1 2-2z" class="main"/></g><g class="chiba kanto prefecture" data-code="12" transform="translate(627 629)"><title>千葉 / Chiba</title><path d="m5 29 2-4-1-5v-7L0 0l8 10 11 5 18-4V8l18 12v4H45L34 35l-2 22-13 4L7 75l-7-4 5-2-2-3 1-3-1-5 2-5-4-4 3-4 3 1v-4l6-3 5-6-7-7-5 4z" class="main"/></g><g class="saitama kanto prefecture" data-code="11" transform="translate(573 618)"><title>埼玉 / Saitama</title><path d="m48 4 1 1 2 7 3-1 6 13v7l-6-2-2 2-4-1-6 3v-4l-7 3-5-4-15-4-3 3-11-3-1-5 16-9 5-10 11 2 6 4z" class="main"/></g><g class="gunma kanto prefecture" data-code="10" transform="translate(557 570)"><title>群馬 / Gunma</title><path d="m64 52-10 2-6-4-11-2-5 10-16 9-4-2v-6l-3-3 3-1-2-6 3-2-1-6H3l-3-5 1-7 5-4-1-2 9-3 12-6v-3l3-1-1-5 4-1 2-4 7 7 8 2-2 3 3 2-3 3-1 9 8 3-6 13 5 7 9-1z" class="main"/></g><g class="tochigi kanto prefecture" data-code="9" transform="translate(603 563)"><title>栃木 / Tochigi</title><path d="m19 60-1-1-2-4-9 1-5-7 6-13-8-3 1-9 3-3-3-2 2-3L28 0l12 3 6 4 1 6v11l1 3-3 2 2 10-3 7-11 2-3 5h-3l-1 4z" class="main"/></g><g class="ibaraki kanto prefecture" data-code="8" transform="translate(622 575)"><title>茨城 / Ibaraki</title><path d="m5 54-3 1-2-7 7-3 1-4h3l3-5 11-2 3-7-2-10 3-2-1-3V1l10 9 6-6V0l10 5-8 24 1 6-3 7 2 10 5 9-2 2 2 3 1-4 8 12-18-12v3l-18 4-11-5z" class="main"/></g><g class="fukushima tohoku prefecture" data-code="7" transform="translate(594 511)"><title>福島 / Fukushima</title><path d="m82 69-10-5v4l-6 6-10-9-1-6-6-4-12-3-25 16-8-2 1-14-5-5 4-6-2-4 1-3 9-1 1-3h8l-2-9 9-10-3-2 7 2 6-1 2 4 4-1 3 2 6-1 3-4-2-1 1-9h6l4 4h9l1 6 5 2-1-2h4V4h4l6 14v27l-2 16z" class="main"/></g><g class="yamagata tohoku prefecture" data-code="6" transform="translate(612 439)"><title>山形 / Yamagata</title><path d="m14 1 10-1 4 5 14 3 2 5 4 1 5 8-2 8h-3l4 11-7 12 1 6-3 6-7 2 1 5-1 9 2 1-3 4-6 1-3-2-4 1-2-4-6 1-7-2-3-5 3-8v-8l8-3 2-4-9-6v-7l-8-3 13-23z" class="main"/></g><g class="akita tohoku prefecture" data-code="5" transform="translate(617 352)"><title>秋田 / Akita</title><path d="m54 97-7 5-4-1-4-1-2-5-14-3-4-5-10 1 2-10 5-9 1-22-6-8-8 3-3-9 6 3 6-8 3-9v-8l-5-5 4 1 3-4 12 2 3-3 7 5 3-2 3 2 10-7v5h5l-1 11-4 5 2 18-5 1 3 4-3 4 2 5-4 6-3 11 8 13-3 3 3 5z" class="main"/></g><g class="miyagi tohoku prefecture" data-code="4" transform="translate(648 445)"><title>宮城 / Miyagi</title><path d="M33 70h-4v6h-4l1 2-5-2-1-6h-9l-4-4H1l-1-5 7-2 3-6-1-6 7-12-4-11h3l2-8-5-8 4 1 7-5 10 5 8-1-2 4 6 4 4-5 6 3 2-14 7 1 3 7-5-3 1 5-4 4 3 5-2-2-4 3 4 2-3 6h4v4l-3-2 2 4-3 1 1 3 3-1-2 2 2 2v4l-4-2 1-3-3 1 2-2-1-2-17 3-3 3 4 2-5 1 3 1-6 10z" class="main"/><path d="m43 41 1 2h-2z"/></g><g class="iwate tohoku prefecture" data-code="3" transform="translate(664 354)"><title>岩手 / Iwate</title><path d="m48 92-7-1-2 14-6-3-4 5-6-4 2-4-8 1-10-5 1-6-3-5 3-3-8-13 3-11 4-6-2-5 3-4-3-4 5-1-2-18 4-5 4 1L29 5l2 3 4-3 5 2 6-7 8 11-2 5 5 3-2 4 6 5 3 15-2 10 3-4 1 5 2 1-6 5 2 2 3-3v4h-4v5l-3 1 5-1-5 3 2 2-2 2 4-1-6 7 4 2h-5l3 3h-3l2 2-6 1-1-3 2 5h-2v3l-2-4z" class="main"/></g><g class="aomori tohoku prefecture" data-code="2" transform="translate(624 287)"><title>青森 / Aomori</title><path d="M3 71v-8l-3-3 6-9h6l6-4 3-16-4-4 3-1 1-7 6 4 4-3 4 3 2 15 3 7 6-4-1-4 2-4 11 9 3-3 4-16-4-7-6 6-14 3 6-25 17 11 9-5-2 31 2 14 4 11 4-1 5 6-6 7-5-2-4 3-2-3-13 10-4-1 1-11h-5v-5l-10 7-3-2-3 2-7-5-3 3-12-2-3 4z" class="main"/></g><g class="hokkaido prefecture" data-code="1" transform="translate(602 10)"><title>北海道 / Hokkaido</title><path d="m4 240-1 5-3 1v-9l6-2z"/><path d="m33 261-1-11-4-7-5-1-2-5-4-1-2-5 4-8-2-11 2-3 9-2 6-9 3 4 2-1 4-9 6-5-10-14 1-7 7-2 13 10 11-3v3l7 3 5-3 6-9-6-25 3-5 7-3 4-6-1-23 4-8 1-10-3-18-8-19 3-9-1-6 2 3 5-1 6-7 26 27 8 13 16 17 29 19 29 5 1 4 5 5h19l22-27 2 5-10 23v10l3 6 10 3-2 2 1-3h-6l5 12 6 7 4 1 7-8 7-1-10 8-2 7-17 3-2 6-4 5h-5l-2-2 1-2-3-1-3 6 3 2-15 1-8-3-15 8-14 16-9 14-3 9 1 15-2 8-14-11-23-9-28-17-13-2 3-3-15 8-16 16-3-3h4l-5-1-2-6-8-8-11 1-5 7-3 10 1 4 12 8h10l9 12 9 3 2 3-6 5-4 2-9-4-3 2v-4l-3-1-2 5-7 4v9l-8 4-3 5-7-3-3-6 1-9z" class="main"/><path d="m71 48 2-3 4 2 2 5-4 3-4-3zM65 35v-2l2 2-1 10-3-10zM369 17l-2-4h-2l-2 4 2 6-1 3-5 2-2 7-7-1 1 7-10 9v4h-6v2l4 2v4l-3 3-4-1v5l-3-3 1 5-3 7 4 1 5-9 5-1 5-10 10-9 2-10 5 3 6-2 15-17 13-9 9-2 1-3-3-4 3-4-5-2-6 2-12 18-11 2zM290 99l5-6 8-2 5-7 3 1 3-6-10 3-8-5-3 2-4 10-9 15v3l-14 15 2 7 5-1v4l1-13 8-5 1-5h3l1-7zm32 26 12-10-5-2-4 3 1 1-7 2v4l2-1zm-22 17 4-5-7 2zm-9 4 2-3-4 1z"/></g></g><g stroke="#eee" stroke-width="12" class="boundary-line"><path d="m320.227 361.996 262.124-252.618M277.337 380.162H46.213"/></g></g></svg>