<svg viewBox="0 0 1009 982" xmlns="http://www.w3.org/2000/svg"><title>Japanese Prefectures</title><desc>Created by marmooo (https://github.com/marmooo/prefectures-map-ja)</desc><g class="svg-map"><g class="prefectures"><g class="okinawa kyusyu-okinawa prefecture" data-code="47" stroke-linejoin="round" fill="#eee" fill-rule="nonzero" stroke="#800" stroke-width="1" transform="translate(52.000000, 193.000000)"><title>沖縄 / Okinawa</title><polygon points="4 109 6 110 4 111 0 110"/><polygon points="48 121 55 123 51 129 39 124 42 122 44 125 46 118"/><polygon points="132 113 130 110 132 110 130 108 133 105 132 100 135 108 142 114"/><polygon points="225 23 224 28 219 23 223 21"/><polygon points="73 117 77 112 79 113 73 120 72 126 66 127 64 125 67 122 63 119 71 120"/><polygon points="287 20 291 17 286 15 285 8 292 10 292 14 299 13 298 11 307 0 309 5 309 9 305 15 300 15 299 19 293 19 294 21 288 25 281 25 286 34 281 31 276 39 280 41 270 46 270 38 277 32 275 24 280 25" class="main"/><polygon points="127 106 126 103 128 104"/><polygon points="279 8 279 6 283 8"/><polygon points="293 11 294 13 292 12"/></g><g class="kagoshima kyusyu kyusyu-okinawa prefecture" data-code="46" stroke-linejoin="round" fill="#eee" fill-rule="nonzero" stroke="#800" stroke-width="1"><title>鹿児島 / Kagoshima</title><g transform="translate(96, 853)"><polygon points="23 113 26 115 23 116"/><polygon points="33 124 32 118 39 114 48 120 47 125 41 129 35 128"/><polygon points="64 117 64 122 59 123 58 116 62 113 63 103 70 93 71 102"/><polygon points="38 8 43 12 52 8 57 14 56 16 61 23 66 28 65 33 70 35 73 44 80 45 80 52 78 55 75 54 70 60 75 63 73 67 76 66 69 69 66 74 50 82 50 77 55 74 59 62 53 53 54 48 48 45 53 43 54 47 57 48 61 42 54 36 50 38 44 51 46 62 51 65 49 70 43 71 40 65 27 65 28 61 25 60 27 58 22 54 31 54 35 44 32 35 27 31 30 24 28 12 31 10 35 12" class="main"/><polygon points="31 1 34 0 33 2"/><polygon points="27 12 24 6 29 4 30 8"/><polygon points="4 32 6 29 7 31 2 39 0 38"/><polygon points="12 28 9 25 14 25"/></g><g transform="translate(375, 17)"><polygon points="5 149 1 150 0 146 10 144"/><polygon points="22 126 22 118 27 118 26 122 30 126 29 129 24 132 21 128"/><polygon points="84 98 81 99 80 97 86 93"/><polygon points="65 90 52 98 56 101 51 104 48 103 50 107 44 102 46 99 37 97 45 97 46 95 42 94 56 88 58 90 60 86 65 85 63 89 65 87 66 89 68 82 70 88"/><polygon points="45 108 43 106 41 108 39 101 44 102 43 105 49 107 46 109 47 107"/><polygon points="76 12 73 16 73 13"/><polygon points="82 1 84 0 86 4"/></g></g><g class="miyazaki kyusyu kyusyu-okinawa prefecture" data-code="45" stroke-linejoin="round" fill="#eee" fill-rule="nonzero" stroke="#800" stroke-width="1" transform="translate(152.000000, 824.000000)"><title>宮崎 / Miyazaki</title><polygon points="36 0 38 1 43 0 48 5 56 5 59 1 63 2 63 7 65 7 54 17 53 21 56 22 52 23 51 25 53 26 47 34 41 51 39 74 34 79 32 91 27 89 22 84 24 81 24 74 17 73 14 64 9 62 10 57 5 52 0 45 1 43 22 41 19 35 23 30 18 23 18 16 23 14 32 0" class="main"/></g><g class="oita kyusyu kyusyu-okinawa prefecture" data-code="44" stroke-linejoin="round" fill="#eee" fill-rule="nonzero" stroke="#800" stroke-width="1" transform="translate(163.000000, 771.000000)"><title>大分 / Oita</title><polygon points="0 34 3 29 0 26 2 24 1 19 5 13 12 9 19 10 20 3 33 7 38 0 47 4 49 10 46 18 43 17 43 20 35 22 36 26 40 28 56 27 50 36 56 36 53 38 56 40 61 38 62 41 57 41 55 45 65 49 59 49 61 51 57 54 60 55 54 56 54 60 52 60 52 55 48 54 45 58 37 58 32 53 27 54 25 53 21 49 22 43 15 30 9 30 10 36 8 39" class="main"/></g><g class="kumamoto kyusyu kyusyu-okinawa prefecture" data-code="43" stroke-linejoin="round" fill="#eee" fill-rule="nonzero" stroke="#800" stroke-width="1" transform="translate(115.000000, 800.000000)"><title>熊本 / kumamoto</title><path d="M8 37l5 1V48L5 57 1 58V52l4-1-5-1L4 40 3 37H8z"/><path d="M20 47H14l-2-4 7-4h7l-3 8H20z"/><path d="M24 34h2v4H23l1-4z"/><path d="M38 67l-5-6-9 4-5-4L32 46l-2-6 2 1-1-2 6-5H26l8-6 1-5-8-8-1-5h5L30 7l5-4 4 1 1-4 8 5 8 5 2-3-1-6h6l7 13-1 6 4 4H69L60 38l-5 2v7l5 7-4 5 3 6-21 2z" class="main"/></g><g class="nagasaki kyusyu kyusyu-okinawa prefecture" data-code="42" stroke-linejoin="round" fill="#eee" fill-rule="nonzero" stroke="#800" stroke-width="1" transform="translate(44.000000, 700.000000)"><title>長崎 / Nagasaki</title><path d="M53 1l2-1 2 2-3 3 1 4-6 6-1 4 3-1-2 4 2-1-3 4V20l-2 2V19l-1 3-3-2h2l1-5h2l-2-1 4-4-3-2 2-5h4l1-2z"/><path d="M46 29l-3 6-6 1 3-14 1 2 4 1-1-3 1 4 3-1-2 4z"/><path d="M67 59l1 2-4 2-4-4h2l-1-3 3-3 3 2-1 2 2 1-1 1z"/><path d="M28 110l-3 5 1-5-3-3 3-1v-4h2l2-8-2 11 5 1-3 2-2-2v4z"/><path d="M24 112l-3-1v-2l2 2-1-3 2 4z"/><path d="M19 113l1-3-1 6-3-5 3 2z"/><path d="M6 118l3-1 1 2 2-4 4 10-7-1v5l-9-3 1-2 2 2 1-1H2l3-3-1-6 2 2z"/><path d="M65 80l-3 1 2-3 1 2z"/><path d="M67 82l3 2-3 2V82z"/><path d="M29 88l2-3 2 2-4 1z"/><path d="M54 76l-3 1 4-3-1 2z"/><path d="M66 86l-2 3 2 7 7 2-1 4 6 7 8 3-7 5 13 1 2 5-2 7-10 4-2-6 5-4-1-2-5-1-8 2-3 6-8 5 4-5-1-3 2 1 2-4-3 2-1-7-4-1-3-6 3-11 4 4-1 4 1-2 3 2-2 7 11 3-4-6 1-5-3-4-3 2-1-6H62V97l-4 3 2-2-3-2V93v2l-4-2 4-6-3-1 1-3 5-1v3l5-1 1 2z" class="main"/><path d="M49 88l-1 4-6 2 5-3-2-2 3-5h4l2-3 1 3-6 4z"/><path d="M15 115v-2l3 3-3 2v-3z"/><path d="M64 101l-1 3-1-3 2-3v3z"/></g><g class="saga kyusyu kyusyu-okinawa prefecture" data-code="41" stroke-linejoin="round" fill="#eee" fill-rule="nonzero" stroke="#800" stroke-width="1" transform="translate(108.000000, 773.000000)"><title>佐賀 / Saga</title><polygon points="15 6 28 6 34 12 41 10 40 16 32 21 30 28 25 23 19 29 22 39 14 36 8 29 9 25 2 23 0 16 2 13 5 17 4 13 6 9 2 6 3 4 6 6 6 0 7 2 11 2 12 7" class="main"/></g><g class="fukuoka kyusyu kyusyu-okinawa prefecture" data-code="40" stroke-linejoin="round" fill="#eee" fill-rule="nonzero" stroke="#800" stroke-width="1" transform="translate(123.000000, 752.000000)"><title>福岡 / Fukuoka</title><polygon points="40 53 32 48 31 52 27 51 22 55 23 58 18 58 18 52 15 49 17 42 25 37 26 31 19 33 13 27 0 27 7 23 3 20 10 15 13 21 20 20 21 15 17 17 14 14 19 15 23 12 25 5 35 3 36 0 42 1 38 5 41 5 43 2 46 4 53 0 49 8 52 10 50 11 55 22 60 22 59 29 52 28 45 32 41 38 42 43 40 45 43 48" class="main"/></g><g class="kochi shikoku prefecture" data-code="39" stroke-linejoin="round" fill="#eee" fill-rule="nonzero" stroke="#800" stroke-width="1" transform="translate(251.000000, 765.000000)"><title>高知 / Kochi</title><path d="M61 0 74 6l6-2 1 8 7 1-2 4 2 4 6 1-7 19L75 25 65 21 55 23V21l1 3-12 4h6l-6 1-2 3-1-3-3 4 1 5-2 6H34l-4 8-5 1v8l-3 3 3 6-4-4-7 2-5-3-4 2 1-6 4-1-1-3H6l2-3L5 41l4 3 6-8 5-3-4-9 11-1 3-10 7-9L61 0z" class="main"/><path d="M1 69 0 70V67l1 2z"/></g><g class="ehime sikoku prefecture" data-code="38" stroke-linejoin="round" fill="#eee" fill-rule="nonzero" stroke="#800" stroke-width="1" transform="translate(225.000000, 737.000000)"><title>愛媛 / Ehime</title><path d="M34 21l-3-1 4-3-1 4z"/><path d="M55 6H51l4-6 2 3-2 3z"/><path d="M60 5h1L60 7 57 6l3-1z"/><path d="M58 10l-4 2 1-5 5 1-2 2z"/><path d="M32 85l-7-2v3H23l1-5 3 1-6-6h3l-2-4h3l-3-1 1-2-3-2 4 3 4-4V63H24l3-3H19l2-3-2-1 3-5-6-1-8 6-8 1L35 37l6-19 9-3-2-4 3-1 8 14 11-4 10 2 4-4 5 2-2 8-24 4-7 9-3 10-11 1 4 9-5 3-6 8-4-3 3 13-2 3z" class="main"/></g><g class="kagawa shikoku prefecture" data-code="37" stroke-linejoin="round" fill="#eee" fill-rule="nonzero" stroke="#800" stroke-width="1" transform="translate(308.000000, 724.000000)"><title>香川 / Kagawa</title><path d="M6 33 1 31 4 21 0 17l6 3L19 10l7 3 4-4 1 5 3-3 3 3-1 3 9 5-1 3-13-2-9 7-7-3-9 6z" class="main"/><path d="M27 5 25 4h4L27 5z"/><path d="M40 0h2L40 8 38 7V5L35 9V5L31 3l9-3z"/></g><g class="tokushima shikoku prefecture" data-code="36" stroke-linejoin="round" fill="#eee" fill-rule="nonzero" stroke="#800" stroke-width="1" transform="translate(312.000000, 744.000000)"><title>徳島 / Tokushima</title><path d="M50 2l2-2-1 4-1-2z"/><path d="M41 2l8-2V3l3 1-4 9 7 7-5 4 7 2L38 36l-5 7-6-1-2-4 2-4-7-1-1-8-6 2L0 21l2-8 9-6 7 3 9-7L40 5l1-3z" class="main"/></g><g class="yamaguchi chugoku prefecture" data-code="35" stroke-linejoin="round" fill="#eee" fill-rule="nonzero" stroke="#800" stroke-width="1" transform="translate(168.000000, 710.000000)"><title>山口 / Yamaguchi</title><path d="M45 0l2 6-4 5 2 4h5l-2 5 2 4 6-2 2 2 3-4-1-4 4-2v7l2 2 1 6 5 2v5H69l1 8-5 2v8l-4-6H57l-5-6-5 2 3-3-4-3-11 4-3-3-2 3-1-2-2 2V38l-2 5-4 2-2-2-3 2-1-5-6-4-6 7V36L0 32l4-5-3-6 3-4h6L5 15l2-3 9 2 1 3h7l6-2-1-3L41 1l2 1 2-2z" class="main"/><path d="M64 54l-5 2 3-4 2 2z"/><path d="M75 50l8-2-5 2-1 3-4-3-4 3-2-5 3-2 5 4z"/><path d="M18 15V13l4 1-4 1z"/><path d="M51 46H48l3-3v3z"/></g><g class="hiroshima chugoku prefecture" data-code="34" stroke-linejoin="round" fill="#eee" fill-rule="nonzero" stroke="#800" stroke-width="1" transform="translate(230.000000, 687.000000)"><title>広島 / Hiroshima</title><path d="M73 40l-1 2-3-2 3 3-2-1-2 5-5-2V42l-9 2-3 4-12 1-2 4-7 2-2-2-3 3 1-3-3-6 2-2-8-1-8 7 1 3-5-2-1-6-2-2V37L0 35l5-5 2-6-1-2 6-5 8 2 2-3 5 2 8-2-3-5 6-3 7-8L58 2l7 2 3 3-2 7 4 5-1 5 4 16z" class="main"/><path d="M45 53l-2 3-2-3 5-2-1 2z"/><path d="M21 54l-1-4 3 1-1 8H19l2-3-4-5 4 3z"/><path d="M15 48l1 2-4 2 3-4z"/><path d="M35 57l-2-1h3l-1 1z"/><path d="M24 58h2l-1 3h3l-2 2-6-1 3-6h3l-2 2z"/><path d="M59 49v3l-3-3h3z"/><path d="M57 50l-4 2 1-2h3z"/><path d="M60 44l2 1-3 2 1-3z"/></g><g class="okayama chugoku prefecture" data-code="33" stroke-linejoin="round" fill="#eee" fill-rule="nonzero" stroke="#800" stroke-width="1" transform="translate(295.000000, 673.000000)"><title>岡山 / Okayama</title><polygon points="58 8 59 14 51 22 52 29 50 32 54 38 53 41 46 39 49 42 43 49 34 48 39 49 36 53 34 52 33 57 27 55 25 58 23 52 23 55 19 51 15 55 10 52 12 56 8 54 4 38 5 33 1 28 3 21 0 18 1 15 8 14 7 10 14 10 13 7 15 6 18 0 25 2 29 7 39 1 38 3 45 6 46 12" class="main"/></g><g class="shimane chugoku prefecture" data-code="32" stroke-linejoin="round" fill="#eee" fill-rule="nonzero" stroke="#800" stroke-width="1" transform="translate(211.000000, 610.000000)"><title>島根 / Shimane</title><path d="M74 14l4-1-3 4-3-2 1 4-2-3 3-2z"/><path d="M79 16l-2 3V15l2-1 2 3-2-1z"/><path d="M83 5l5-5 5 5-1 4H89l2 2-5 1-3-7z"/><path d="M2 1e2l8-2L25 84l10-6 6-8 11-5 3-6-2-4 17-4 6-5 3 3 8-1-3 2-2 1 6 8-1 9-8 2 2 3-4 6-13-2-7 8-6 3 3 5-8 2-5-2-2 3-8-2-6 5 1 2-2 6-5 5 2 2-4 2 1 4-3 4-2-2-6 2-2-4 2-5H2l-2-4 4-5-2-6z" class="main"/></g><g class="tottori chugoku prefecture" data-code="31" stroke-linejoin="round" fill="#eee" fill-rule="nonzero" stroke="#800" stroke-width="1" transform="translate(288.000000, 658.000000)"><title>鳥取 / Tottori</title><polygon points="7 33 0 31 4 25 2 22 10 20 11 11 5 3 7 2 9 6 15 8 23 4 34 6 55 5 64 0 71 17 71 21 65 23 53 27 52 21 45 18 46 16 36 22 32 17 25 15 22 21 20 22 21 25 14 25 15 29 8 30" class="main"/></g><g class="wakayama kinki prefecture" data-code="30" stroke-linejoin="round" fill="#eee" fill-rule="nonzero" stroke="#800" stroke-width="1" transform="translate(385.000000, 737.000000)"><title>和歌山 / Wakayama</title><path d="M41 32l3 6 5 3-4 5 1 4-8 5-1 4H35l1-3-17-5-5-7 3-3-8-4-5-7H0l3-5-3-1 6-3-5-3 4-2-1-2H8L0 6 2 3 5 6 31 0l4 9-4 1-6 7 5 7-2 6 13 2z" class="main"/><path d="M49 23v3l-5 3V26l5-3z"/></g><g class="nara kinki prefecture" data-code="29" stroke-linejoin="round" fill="#eee" fill-rule="nonzero" stroke="#800" stroke-width="1" transform="translate(410.000000, 712.000000)"><title>奈良 / Nara</title><polygon points="24 48 19 51 19 54 17 54 17 57 16 57 3 55 5 49 0 42 6 35 10 34 6 25 8 20 6 11 11 0 17 5 21 2 25 5 27 3 29 7 26 8 28 9 27 13 36 18 28 24 31 29 29 30 31 33 29 37 30 44 29 47" class="main"/></g><g class="hyogo kinki prefecture" data-code="28" stroke-linejoin="round" fill="#eee" fill-rule="nonzero" stroke="#800" stroke-width="1" transform="translate(345.000000, 655.000000)"><title>兵庫 / Hyogo</title><path d="M31 90l-8 3V88l-3 1V86L38 67l1 2-7 10 3 9-4 2z"/><path d="M3 59l1-3-4-6 2-3-1-7 8-8-1-6 6-2V20L7 3l9-3L33 1 32 5l4 5 5-1 1 2v6H36l-1 6 7 5 5-2 2 7 10 2-1 5-3 1 1 4 6 3-2 1 2 11-3 2-6-2-13 6L25 56 11 57V53L8 58 5 56 3 59z" class="main"/></g><g class="osaka kinki prefecture" data-code="27" stroke-linejoin="round" fill="#eee" fill-rule="nonzero" stroke="#800" stroke-width="1" transform="translate(387.000000, 695.000000)"><title>大阪 / Osaka</title><polygon points="16 0 24 8 28 5 27 8 31 9 34 17 29 28 31 37 29 42 3 48 0 45 7 44 14 37 17 28 19 30 17 22 20 20 18 9 20 8 14 5 13 1" class="main"/></g><g class="kyoto kinki prefecture" data-code="26" stroke-linejoin="round" fill="#eee" fill-rule="nonzero" stroke="#800" stroke-width="1" transform="translate(377.000000, 649.000000)"><title>京都 / Kyoto</title><polygon points="44 63 41 55 37 54 38 51 34 54 26 46 27 41 17 39 15 32 10 34 3 29 4 23 10 23 10 17 9 15 4 16 0 11 1 7 3 10 2 8 19 0 23 7 15 14 18 15 20 11 20 15 24 17 23 21 25 18 27 19 25 14 31 11 32 14 31 20 34 25 46 27 51 32 48 46 51 56 55 56 59 62 60 66 58 68 54 65 50 68" class="main"/></g><g class="shiga kinki prefecture" data-code="25" stroke-linejoin="round" fill="#eee" fill-rule="nonzero" stroke="#800" stroke-width="1" transform="translate(423.000000, 655.000000)"><title>滋賀 / Shiga</title><path d="M20 0l7 3 1 6h3l3 7 1 3-4 10 2 1 1 10-4 10-6 3-7-3-1 5-3 1-4-6H5L2 40 5 26 0 21l3-4 3 1 3-7 3 2 6-3V7l3 1-1-8zm0 13v3l-2-3-4 3 2 8-8 8v4L5 42l2 3 2-9 6-1 1-4 9-6 1-4-6-8z" class="main"/></g><g class="mie kinki prefecture" data-code="24" stroke-linejoin="round" fill="#eee" fill-rule="nonzero" stroke="#800" stroke-width="1" transform="translate(426.000000, 683.000000)"><title>三重 / Mie</title><polygon points="8 95 3 92 0 86 1 86 1 83 3 83 8 80 8 77 13 76 14 73 13 66 15 62 13 59 15 58 12 53 20 47 11 42 12 38 10 37 13 36 11 32 10 28 13 27 14 22 21 25 27 22 31 12 30 2 36 0 43 7 48 15 42 16 43 20 36 32 35 40 51 47 53 52 56 51 55 55 50 55 55 56 55 61 51 62 53 60 50 58 49 60 43 61 46 57 42 57 39 62 39 60 36 63 34 61 34 64 32 62 25 66 22 68 23 73 21 72 22 70 18 73 22 77 20 77 22 80 19 78 20 81 13 85" class="main"/></g><g class="aichi chubu prefecture" data-code="23" stroke-linejoin="round" fill="#eee" fill-rule="nonzero" stroke="#800" stroke-width="1" transform="translate(469.000000, 673.000000)"><title>愛知 / Aichi</title><polygon points="42 46 18 52 20 47 23 49 31 43 33 46 35 43 34 40 28 37 26 41 18 40 14 37 16 29 12 40 16 45 13 45 9 41 10 36 8 33 8 28 12 21 5 25 0 17 1 11 5 3 15 0 21 8 26 10 33 8 39 12 46 8 47 14 52 11 60 13 50 33 42 38" class="main"/></g><g class="shizuoka chubu prefecture" data-code="22" stroke-linejoin="round" fill="#eee" fill-rule="nonzero" stroke="#800" stroke-width="1" transform="translate(511.000000, 659.000000)"><title>静岡 / Shizuoka</title><polygon points="73 14 77 14 77 27 83 31 81 36 85 42 85 46 78 55 77 61 70 65 64 59 67 45 65 41 66 38 72 37 62 31 55 33 51 38 53 41 44 45 42 54 36 61 38 65 25 61 0 60 0 52 8 47 18 27 33 17 33 5 37 0 40 8 39 19 44 20 48 29 53 27 52 20 56 12 61 17" class="main"/></g><g class="gifu chubu prefecture" data-code="21" stroke-linejoin="round" fill="#eee" fill-rule="nonzero" stroke="#800" stroke-width="1" transform="translate(450.000000, 608.000000)"><title>岐阜 / Gifu</title><polygon points="66 4 69 10 64 20 67 24 66 28 60 35 55 35 53 40 59 43 64 50 62 53 68 59 66 63 68 66 65 66 67 70 65 73 58 77 52 73 45 75 40 73 34 65 24 68 20 76 19 82 12 75 6 77 4 76 8 66 7 63 4 56 1 56 0 50 5 41 11 44 12 42 25 41 28 37 22 29 24 23 29 13 26 10 30 5 34 7 35 11 44 0 47 2 52 0 52 2 56 0" class="main"/></g><g class="nagano chubu prefecture" data-code="20" stroke-linejoin="round" fill="#eee" fill-rule="nonzero" stroke="#800" stroke-width="1" transform="translate(503.000000, 572.000000)"><title>長野 / Nagano</title><polygon points="68 18 59 21 60 23 55 27 54 34 57 39 66 39 67 45 64 47 66 53 63 54 66 57 66 63 70 65 71 70 68 72 64 69 58 71 53 66 43 77 46 80 43 82 45 87 41 92 41 104 26 114 18 112 13 115 12 109 14 106 12 102 15 102 13 99 15 95 9 89 11 86 6 79 0 76 2 71 7 71 13 64 14 60 11 56 16 46 13 40 19 32 18 29 21 28 22 17 27 10 27 7 34 8 34 13 36 14 44 10 48 12 48 7 53 2 60 0 63 2 63 7 68 11" class="main"/></g><g class="yamanashi chubu prefecture" data-code="19" stroke-linejoin="round" fill="#eee" fill-rule="nonzero" stroke="#800" stroke-width="1" transform="translate(546.000000, 638.000000)"><title>山梨 / Yamanashi</title><polygon points="2 21 0 16 3 14 0 11 10 0 15 5 21 3 25 6 28 4 39 7 43 15 48 18 47 27 38 35 26 38 21 33 17 41 18 48 13 50 9 41 4 40 5 29" class="main"/></g><g class="fukui chubu prefecture" data-code="18" stroke-linejoin="round" fill="#eee" fill-rule="nonzero" stroke="#800" stroke-width="1" transform="translate(408.000000, 618.000000)"><title>福井 / Fukui</title><polygon points="40 0 46 8 56 9 61 14 66 13 64 19 70 27 67 31 54 32 53 34 47 31 42 40 35 37 36 45 33 44 33 47 27 50 24 48 21 55 18 54 15 58 3 56 0 51 1 45 3 49 10 46 6 49 13 50 15 47 13 48 13 45 19 47 17 45 20 43 18 40 26 41 25 35 28 33 29 38 31 39 32 32 25 19 34 6 34 2" class="main"/></g><g class="ishikawa chubu prefecture" data-code="17" stroke-linejoin="round" fill="#eee" fill-rule="nonzero" stroke="#800" stroke-width="1" transform="translate(448.000000, 541.000000)"><title>石川 / Ishikawa</title><path d="M37 26l-3-3h7l-4 3z"/><path d="M28 77l3 3-5 10-5 1-5-5L6 85 0 77 15 62 26 44l1-11-2-4V24l-3-1 5-13L52 0l4 1 1 4-6 1-1 9-4-1-7 8-2-4-3 1-2 9 6 2 3-4V36l-8 2-2 10-3 2 2 4-2 3 1 4-2 8 1 8z" class="main"/></g><g class="toyama chubu prefecture" data-code="16" stroke-linejoin="round" fill="#eee" fill-rule="nonzero" stroke="#800" stroke-width="1" transform="translate(475.000000, 575.000000)"><title>富山 / Toyama</title><polygon points="41 37 31 33 27 35 27 33 22 35 19 33 10 44 9 40 5 38 1 43 0 35 2 27 1 23 3 20 1 16 4 14 6 4 14 2 11 8 23 15 31 11 33 3 43 0 47 3 50 14 49 25 46 26 47 29" class="main"/></g><g class="niigata chubu prefecture" data-code="15" stroke-linejoin="round" fill="#eee" fill-rule="nonzero" stroke="#800" stroke-width="1" transform="translate(518.000000, 476.000000)"><title>新潟 / Niigata</title><path d="M7 113 4 102 0 99l14-5 9-7h7L45 75 55 60l5-14L79 34l1 2-1-1 6-7L94 0l8 3v7l9 6-2 4-8 3v8l-3 8 3 5 3 2-9 10 2 9H89l-1 3-9 1-1 3 2 4-4 6 5 5-1 14-7-7-2 4-4 1 1 5-3 1v3l-12 6v-7l-5-4V98l-3-2-7 2-5 5v5l-4-2-8 4-2-1v-5l-7-1v3l-5 7z" class="main"/><path d="M36 46l-8 1 7-9-2-3-3 2V31l4-8 9-9-4 16 7 1-3 9-7 6z"/></g><g class="kanagawa kanto prefecture" data-code="14" stroke-linejoin="round" fill="#eee" fill-rule="nonzero" stroke="#800" stroke-width="1" transform="translate(584.000000, 656.000000)"><title>神奈川 / Kanagawa</title><polygon points="10 0 24 6 28 11 28 6 30 6 27 4 30 2 44 9 40 13 36 12 39 16 36 16 36 23 42 26 38 30 39 33 35 33 36 28 33 24 26 22 15 25 11 28 12 34 10 34 4 30 4 17 0 17 9 9" class="main"/></g><g class="tokyo kanto prefecture" data-code="13" stroke-linejoin="round" fill="#eee" fill-rule="nonzero" stroke="#800" stroke-width="1" transform="translate(585.000000, 642.000000)"><title>東京 / Tokyo</title><path d="M49 173v5l-5-7 5 2z"/><path d="M34 113l-2 2-3-1 2-3 3 2z"/><path d="M11 104l2 2-2 1v-3z"/><path d="M18 98l-2-2 2-4v6z"/><path d="M22 75V69l4 1v6l-4-1z"/><path d="M48 7l1 5-2 4-6-1 2 4-4 1h4v3L29 16l-3 2 3 2H27v5l-4-5L9 14 4 11 0 3 3 0 18 4l5 4 7-3V9l6-3 4 1 2-2 6 2z" class="main"/></g><g class="chiba kanto prefecture" data-code="12" stroke-linejoin="round" fill="#eee" fill-rule="nonzero" stroke="#800" stroke-width="1" transform="translate(627.000000, 629.000000)"><title>千葉 / Chiba</title><polygon points="5 29 7 25 6 20 6 13 0 0 8 10 19 15 37 11 37 8 55 20 55 24 45 24 34 35 32 57 19 61 7 75 0 71 5 69 3 66 4 63 3 58 5 53 1 49 4 45 7 46 7 42 13 39 18 33 11 26 6 30" class="main"/></g><g class="saitama kanto prefecture" data-code="11" stroke-linejoin="round" fill="#eee" fill-rule="nonzero" stroke="#800" stroke-width="1" transform="translate(573.000000, 618.000000)"><title>埼玉 / Saitama</title><polygon points="48 4 49 5 51 12 54 11 54 11 60 24 60 31 54 29 52 31 48 30 42 33 42 29 35 32 30 28 15 24 12 27 1 24 0 19 16 10 21 0 32 2 38 6" class="main"/></g><g class="gunma kanto prefecture" data-code="10" stroke-linejoin="round" fill="#eee" fill-rule="nonzero" stroke="#800" stroke-width="1" transform="translate(557.000000, 570.000000)"><title>群馬 / Gunma</title><polygon points="64 52 54 54 48 50 37 48 32 58 16 67 12 65 12 59 9 56 12 55 10 49 13 47 12 41 3 41 0 36 1 29 6 25 5 23 14 20 26 14 26 11 29 10 28 5 32 4 34 0 41 7 49 9 47 12 50 14 47 17 46 26 54 29 48 42 53 49 62 48" class="main"/></g><g class="tochigi kanto prefecture" data-code="9" stroke-linejoin="round" fill="#eee" fill-rule="nonzero" stroke="#800" stroke-width="1" transform="translate(603.000000, 563.000000)"><title>栃木 / Tochigi</title><polygon points="19 60 18 59 16 55 7 56 2 49 8 36 0 33 1 24 4 21 1 19 3 16 28 0 40 3 46 7 47 13 47 24 48 27 45 29 47 39 44 46 33 48 30 53 27 53 26 57" class="main"/></g><g class="ibaraki kanto prefecture" data-code="8" stroke-linejoin="round" fill="#eee" fill-rule="nonzero" stroke="#800" stroke-width="1" transform="translate(622.000000, 575.000000)"><title>茨城 / Ibaraki</title><polygon points="5 54 5 54 2 55 0 48 7 45 8 41 11 41 14 36 25 34 28 27 26 17 29 15 28 12 28 1 38 10 44 4 44 0 54 5 46 29 47 35 44 42 46 52 51 61 49 63 51 66 52 62 60 74 42 62 42 65 24 69 13 64" class="main"/></g><g class="fukushima tohoku prefecture" data-code="7" stroke-linejoin="round" fill="#eee" fill-rule="nonzero" stroke="#800" stroke-width="1" transform="translate(594.000000, 511.000000)"><title>福島 / Fukushima</title><polygon points="82 69 72 64 72 68 66 74 56 65 55 59 49 55 37 52 12 68 4 66 5 52 0 47 4 41 2 37 3 34 12 33 13 30 21 30 19 21 28 11 25 9 32 11 38 10 40 14 44 13 47 15 53 14 56 10 54 9 55 0 61 0 65 4 74 4 75 10 80 12 79 10 83 10 83 4 87 4 93 18 93 45 91 61" class="main"/></g><g class="yamagata tohoku prefecture" data-code="6" stroke-linejoin="round" fill="#eee" fill-rule="nonzero" stroke="#800" stroke-width="1" transform="translate(612.000000, 439.000000)"><title>山形 / Yamagata</title><polygon points="14 1 24 0 28 5 42 8 44 13 48 14 53 22 51 30 48 30 52 41 45 53 46 59 43 65 36 67 37 72 36 81 38 82 35 86 29 87 26 85 22 86 20 82 14 83 7 81 4 76 7 68 7 60 15 57 17 53 8 47 8 40 0 37 13 14" class="main"/></g><g class="akita tohoku prefecture" data-code="5" stroke-linejoin="round" fill="#eee" fill-rule="nonzero" stroke="#800" stroke-width="1" transform="translate(617.000000, 352.000000)"><title>秋田 / Akita</title><polygon points="54 97 47 102 43 101 39 100 37 95 23 92 19 87 9 88 11 78 16 69 17 47 11 39 3 42 0 33 6 36 12 28 15 19 15 11 10 6 14 7 17 3 29 5 32 2 39 7 42 5 45 7 55 0 55 5 60 5 59 16 55 21 57 39 52 40 55 44 52 48 54 53 50 59 47 70 55 83 52 86 55 91" class="main"/></g><g class="miyagi tohoku prefecture" data-code="4" stroke-linejoin="round" fill="#eee" fill-rule="nonzero" stroke="#800" stroke-width="1" transform="translate(648.000000, 445.000000)"><title>宮城 / Miyagi</title><path d="M33 70H29v6H25l1 2-5-2-1-6H11L7 66H1L0 61l7-2 3-6-1-6 7-12-4-11h3l2-8-5-8 4 1 7-5L33 9l8-1-2 4 6 4 4-5 6 3L57 0l7 1 3 7-5-3 1 5-4 4 3 5-2-2-4 3 4 2-3 6h4v4l-3-2 2 4-3 1 1 3 3-1-2 2 2 2v4l-4-2 1-3-3 1 2-2-1-2-17 3-3 3 4 2-5 1 3 1-6 10 1 13z" class="main"/><path d="M43 41l1 2H42l1-2z"/></g><g class="iwate tohoku prefecture" data-code="3" stroke-linejoin="round" fill="#eee" fill-rule="nonzero" stroke="#800" stroke-width="1" transform="translate(664.000000, 354.000000)"><title>岩手 / Iwate</title><polygon points="48 92 41 91 39 105 33 102 29 107 23 103 25 99 17 100 7 95 8 89 5 84 8 81 0 68 3 57 7 51 5 46 8 42 5 38 10 37 8 19 12 14 16 15 29 5 31 8 35 5 40 7 46 0 54 11 52 16 57 19 55 23 61 28 64 43 62 53 65 49 66 54 68 55 62 60 64 62 67 59 67 63 63 63 63 68 60 69 65 68 60 71 62 73 60 75 64 74 58 81 62 83 57 83 60 86 57 86 59 88 53 89 52 86 54 91 52 91 52 94 50 90" class="main"/></g><g class="aomori tohoku prefecture" data-code="2" stroke-linejoin="round" fill="#eee" fill-rule="nonzero" stroke="#800" stroke-width="1" transform="translate(624.000000, 287.000000)"><title>青森 / Aomori</title><polygon points="3 71 3 63 0 60 6 51 12 51 18 47 21 31 17 27 20 26 21 19 27 23 31 20 35 23 37 38 40 45 46 41 45 37 47 33 58 42 61 39 65 23 61 16 55 22 41 25 47 0 64 11 73 6 71 37 73 51 77 62 81 61 86 67 80 74 75 72 71 75 69 72 56 82 52 81 53 70 48 70 48 65 38 72 35 70 32 72 25 67 22 70 10 68 7 72" class="main"/></g><g class="hokkaido prefecture" data-code="1" stroke-linejoin="round" fill="#eee" fill-rule="nonzero" stroke="#800" stroke-width="1" transform="translate(602.000000, 10.000000)"><title>北海道 / Hokkaido</title><path d="M4 240l-1 5-3 1v-9l6-2-2 5z"/><path d="M33 261l-1-11-4-7-5-1-2-5-4-1-2-5 4-8-2-11 2-3 9-2 6-9 3 4 2-1 4-9 6-5-10-14 1-7 7-2 13 10 11-3v3l7 3 5-3 6-9-6-25 3-5 7-3 4-6-1-23 4-8 1-10-3-18-8-19 3-9-1-6 2 3 5-1 6-7 26 27 8 13 16 17 29 19 29 5 1 4 5 5h19l22-27 2 5-10 23v10l3 6 10 3-2 2 1-3h-6l5 12 6 7 4 1 7-8 7-1-10 8-2 7-17 3-2 6-4 5h-5l-2-2 1-2-3-1-3 6 3 2-15 1-8-3-15 8-14 16-9 14-3 9 1 15-2 8-14-11-23-9-28-17-13-2 3-3-15 8-16 16-3-3h4l-5-1-2-6-8-8-11 1-5 7-3 10 1 4 12 8H62l9 12 9 3 2 3-6 5-4 2-9-4-3 2v-4l-3-1-2 5-7 4v9l-8 4-3 5-7-3-3-6 1-9 5-8z" class="main"/><path d="M71 48l2-3 4 2 2 5-4 3-4-3V48z"/><path d="M65 35V33l2 2-1 10-3-10h2z"/><path d="M369 17l-2-4h-2l-2 4 2 6-1 3-5 2-2 7-7-1 1 7-10 9v4h-6v2l4 2v4l-3 3-4-1v5l-3-3 1 5-3 7 4 1 5-9 5-1 5-10 10-9 2-10 5 3 6-2 15-17 13-9 9-2 1-3-3-4 3-4-5-2-6 2-12 18-11 2-4-5z"/><path d="M290 99l5-6 8-2 5-7 3 1 3-6-10 3-8-5-3 2-4 10-9 15v3l-14 15 2 7 5-1v4l1-13 8-5 1-5h3l1-7 3-3z"/><path d="M322 125l12-10-5-2-4 3 1 1-7 2v4l2-1 1 3z"/><path d="M3e2 142l4-5-7 2 3 3z"/><path d="M291 146l2-3-4 1 2 2z"/></g></g><g class="boundary-line" stroke="#eee" stroke-width="12" stroke-linejoin="round" style=""><line x1="320.227" y1="361.996" x2="582.351" y2="109.378" style=""/><line x1="277.337" y1="380.162" x2="46.213" y2="380.162" style=""/></g></g></svg>